<svg xmlns="http://www.w3.org/2000/svg" viewBox="0 0 400 300">
  <!-- Anthill -->
  <path d="M150 200 C 150 200, 200 100, 250 200" 
        fill="#8B4513" 
        stroke="#654321" 
        stroke-width="2"/>
  
  <!-- Continuous grass along base -->
  <g fill="#228B22">
    <!-- Left side grass -->
    <path d="M120 200 C 120 190, 125 185, 130 200" />
    <path d="M130 200 C 130 188, 135 183, 140 200" />
    <path d="M140 200 C 140 185, 145 180, 150 200" />
    <path d="M150 200 C 150 192, 155 187, 160 200" />
    <path d="M160 200 C 160 188, 165 183, 170 200" />
    <path d="M170 200 C 170 190, 175 185, 180 200" />
    <path d="M180 200 C 180 185, 185 180, 190 200" />
    <!-- Center grass -->
    <path d="M190 200 C 190 192, 195 187, 200 200" />
    <path d="M200 200 C 200 188, 205 183, 210 200" />
    <path d="M210 200 C 210 190, 215 185, 220 200" />
    <!-- Right side grass -->
    <path d="M220 200 C 220 185, 225 180, 230 200" />
    <path d="M230 200 C 230 192, 235 187, 240 200" />
    <path d="M240 200 C 240 188, 245 183, 250 200" />
    <path d="M250 200 C 250 190, 255 185, 260 200" />
    <path d="M260 200 C 260 185, 265 180, 270 200" />
    <path d="M270 200 C 270 192, 275 187, 280 200" />
  </g>
  
  <!-- Ground line -->
  <line x1="100" y1="200" x2="300" y2="200" 
        stroke="#654321" 
        stroke-width="2"/>
</svg>
